<svg width="80" height="80" viewBox="0 0 80 80" fill="none" xmlns="http://www.w3.org/2000/svg">
<rect width="80" height="80" rx="40" fill="#FAF58D"/>
<path d="M36.8736 22.8119C34.5332 22.8119 32.3677 23.5462 30.5865 24.7961C30.4709 23.0056 30.0616 21.4526 29.3085 20.0777C31.6871 18.7613 34.3681 18.0884 37.0865 18.1255C39.8048 18.1625 42.4665 18.9082 44.8084 20.2889C47.1503 21.6695 49.0915 23.6374 50.44 25.9979C51.7885 28.3585 52.4978 31.0301 52.4977 33.7487H59.5316C60.9814 33.7487 62.3718 34.3244 63.3972 35.3493C64.4227 36.3741 64.9992 37.7642 65 39.214V56.4004C65.0004 57.119 64.8592 57.8307 64.5843 58.4948C64.3095 59.1588 63.9065 59.7621 63.3983 60.2703C62.8902 60.7784 62.2868 61.1815 61.6228 61.4563C60.9588 61.7311 60.2471 61.8723 59.5285 61.8719H42.342C40.8917 61.8719 39.5008 61.2958 38.4753 60.2703C37.4498 59.2447 36.8736 57.8538 36.8736 56.4035V49.3727C34.7 49.3755 32.5498 48.9231 30.5615 48.0447C30.6022 46.9822 30.624 45.8667 30.624 44.6855V44.4918C30.624 43.9699 30.624 43.37 30.6146 42.72C32.4498 44.002 34.635 44.6883 36.8736 44.6855V39.2171C36.8736 36.1985 39.3235 33.7487 42.342 33.7487H47.8104C47.8104 30.8481 46.6582 28.0663 44.6071 26.0152C42.5561 23.9642 39.7743 22.8119 36.8736 22.8119ZM51.7821 38.4359C51.0247 40.8354 49.7004 43.0171 47.9212 44.7963C46.142 46.5755 43.9603 47.8998 41.5608 48.6571V56.4035C41.5608 56.8348 41.9108 57.1847 42.342 57.1847H59.5285C59.7357 57.1847 59.9344 57.1024 60.0809 56.9559C60.2274 56.8094 60.3097 56.6107 60.3097 56.4035V39.2171C60.3097 39.0099 60.2274 38.8112 60.0809 38.6647C59.9344 38.5182 59.7357 38.4359 59.5285 38.4359H51.7821ZM46.7574 38.4359H42.342C42.1349 38.4359 41.9362 38.5182 41.7896 38.6647C41.6431 38.8112 41.5608 39.0099 41.5608 39.2171V43.6325C43.8383 42.5483 45.6733 40.7134 46.7574 38.4359V38.4359ZM23.0651 15.3905C23.3245 15.6173 23.5016 15.9236 23.5688 16.2616C23.6361 16.5995 23.5897 16.9502 23.437 17.2591C23.4105 17.3505 23.3968 17.4452 23.3963 17.5403C23.3963 17.7372 23.4463 18.1122 23.9182 18.5809C24.1463 18.809 24.3213 18.9715 24.5119 19.1496C24.6681 19.2934 24.8338 19.4433 25.0431 19.6496C25.4493 20.0371 25.8774 20.4933 26.2618 21.0651C27.0586 22.2619 27.4992 23.7587 27.4992 25.9367C27.4992 28.6021 26.5118 30.8739 24.9713 32.2675L25.1712 32.4988C26.0462 33.5737 26.5555 34.9674 26.8743 36.3423C27.4992 39.0609 27.4992 42.3294 27.4992 44.6074V44.6855C27.4992 53.3943 26.3149 58.3347 25.0119 61.1595C24.3557 62.5813 23.6588 63.4875 23.0557 64.0562C22.8106 64.2914 22.5402 64.4989 22.2495 64.6749C22.1165 64.755 21.9775 64.825 21.8339 64.8842C21.8339 64.8842 21.4808 64.9967 21.2496 64.9967C21.0184 64.9967 20.6653 64.8842 20.6653 64.8842C20.5201 64.8285 20.3809 64.7583 20.2497 64.6749C19.959 64.4989 19.6887 64.2914 19.4435 64.0562C18.8404 63.4843 18.1436 62.5813 17.4873 61.1595C16.1843 58.3347 15 53.3943 15 44.6855V44.6074C15 42.3263 15 39.0609 15.625 36.3423C15.9437 34.9674 16.453 33.5737 17.328 32.4988C17.3905 32.4207 17.4592 32.3425 17.528 32.2675C15.9874 30.8739 15 28.6021 15 25.9367C15 24.918 15.2719 23.7025 15.6468 22.5806C16.0218 21.4557 16.5468 20.2933 17.153 19.3559C17.8748 18.1372 18.8904 17.1154 19.6778 16.4279C20.1096 16.0482 20.5601 15.6905 21.0277 15.3561L21.1652 15.2624C21.4518 15.0714 21.7934 14.9804 22.137 15.0035C22.4805 15.0267 22.8068 15.1627 23.0651 15.3905V15.3905Z" fill="#EF51A5"/>
</svg>
