<svg width="120" height="120" viewBox="0 0 120 120" fill="none" xmlns="http://www.w3.org/2000/svg">
<rect width="120" height="120" rx="60" fill="#FAF58D"/>
<path d="M58.15 29.5751C56.3898 29.5751 54.7613 30.1274 53.4218 31.0674C53.3348 29.7208 53.027 28.5529 52.4606 27.5189C54.2495 26.5289 56.2657 26.0228 58.31 26.0507C60.3544 26.0785 62.356 26.6393 64.1173 27.6777C65.8785 28.716 67.3383 30.1959 68.3525 31.9712C69.3666 33.7464 69.9 35.7556 69.9 37.8001H75.1898C76.2801 37.8001 77.3258 38.2331 78.0969 39.0038C78.8681 39.7745 79.3017 40.82 79.3023 41.9102V54.8352C79.3026 55.3757 79.1964 55.9109 78.9897 56.4103C78.783 56.9097 78.4799 57.3634 78.0978 57.7456C77.7156 58.1277 77.2619 58.4308 76.7625 58.6375C76.2631 58.8442 75.7279 58.9504 75.1874 58.9501H62.2625C61.1717 58.9501 60.1257 58.5168 59.3545 57.7456C58.5832 56.9743 58.15 55.9283 58.15 54.8376V49.5501C56.5153 49.5522 54.8982 49.212 53.403 48.5513C53.4335 47.7523 53.45 46.9134 53.45 46.0251V45.8794C53.45 45.4869 53.45 45.0357 53.4429 44.5469C54.823 45.5111 56.4664 46.0272 58.15 46.0251V41.9126C58.15 39.6425 59.9924 37.8001 62.2625 37.8001H66.375C66.375 35.6187 65.5084 33.5266 63.9659 31.9841C62.4234 30.4417 60.3314 29.5751 58.15 29.5751ZM69.3618 41.3251C68.7922 43.1296 67.7963 44.7703 66.4582 46.1084C65.1202 47.4464 63.4795 48.4424 61.675 49.0119V54.8376C61.675 55.1619 61.9382 55.4251 62.2625 55.4251H75.1874C75.3433 55.4251 75.4927 55.3632 75.6029 55.253C75.7131 55.1428 75.7749 54.9934 75.7749 54.8376V41.9126C75.7749 41.7568 75.7131 41.6074 75.6029 41.4972C75.4927 41.387 75.3433 41.3251 75.1874 41.3251H69.3618ZM65.583 41.3251H62.2625C62.1066 41.3251 61.9572 41.387 61.847 41.4972C61.7368 41.6074 61.675 41.7568 61.675 41.9126V45.2331C63.3877 44.4178 64.7677 43.0379 65.583 41.3251V41.3251ZM47.7653 23.9939C47.9604 24.1645 48.0935 24.3948 48.1441 24.6489C48.1947 24.9031 48.1598 25.1669 48.045 25.3992C48.0251 25.4679 48.0148 25.5391 48.0144 25.6107C48.0144 25.7587 48.052 26.0407 48.4069 26.3932C48.5784 26.5648 48.71 26.687 48.8534 26.8209C48.9709 26.929 49.0954 27.0418 49.2529 27.1969C49.5584 27.4883 49.8803 27.8314 50.1694 28.2615C50.7686 29.1615 51.1 30.2872 51.1 31.9251C51.1 33.9296 50.3574 35.6381 49.1988 36.6862L49.3492 36.8601C50.0072 37.6685 50.3903 38.7166 50.63 39.7506C51.1 41.7951 51.1 44.2532 51.1 45.9663V46.0251C51.1 52.5745 50.2093 56.2899 49.2294 58.4143C48.7359 59.4835 48.2118 60.165 47.7583 60.5927C47.5739 60.7696 47.3705 60.9257 47.152 61.058C47.0519 61.1183 46.9474 61.1709 46.8394 61.2155C46.8394 61.2155 46.5739 61.3001 46.4 61.3001C46.2261 61.3001 45.9605 61.2155 45.9605 61.2155C45.8513 61.1735 45.7466 61.1208 45.648 61.058C45.4294 60.9257 45.226 60.7696 45.0417 60.5927C44.5881 60.1627 44.0641 59.4835 43.5706 58.4143C42.5906 56.2899 41.7 52.5745 41.7 46.0251V45.9663C41.7 44.2508 41.7 41.7951 42.17 39.7506C42.4097 38.7166 42.7927 37.6685 43.4507 36.8601C43.4977 36.8013 43.5494 36.7426 43.6011 36.6862C42.4426 35.6381 41.7 33.9296 41.7 31.9251C41.7 31.159 41.9044 30.2449 42.1864 29.4012C42.4684 28.5552 42.8632 27.681 43.3191 26.976C43.862 26.0595 44.6257 25.2911 45.2179 24.7741C45.5426 24.4885 45.8814 24.2195 46.2331 23.968L46.3365 23.8975C46.552 23.7539 46.8089 23.6854 47.0673 23.7029C47.3257 23.7203 47.5711 23.8226 47.7653 23.9939V23.9939Z" fill="#EF51A5"/>
<path d="M11.344 92V72.4H21.396V75.76H15.18V80.436H20.724V83.684H15.18V88.752H21.508V92H11.344ZM28.52 88.752H30.872C31.2827 88.304 31.572 87.856 31.74 87.408C31.9267 86.9413 32.02 86.26 32.02 85.364V72.4H35.856V83.964C35.856 84.916 35.828 85.6627 35.772 86.204C35.7347 86.7267 35.6227 87.3707 35.436 88.136C35.1187 89.4987 34.2414 90.7867 32.804 92H26.588C25.1507 90.824 24.2734 89.536 23.956 88.136C23.676 86.9973 23.536 85.6067 23.536 83.964V72.4H27.372V85.364C27.372 86.26 27.456 86.9413 27.624 87.408C27.8107 87.856 28.1094 88.304 28.52 88.752ZM47.1503 92L41.9143 81.164L41.7743 81.22L41.9423 84.524V92H38.4143V72.4H41.2423L46.3943 83.656L46.5343 83.6L46.2263 80.156V72.4H49.7543V92H47.1503ZM58.718 72.4H65.438V75.76H60.062L59.978 75.928L64.458 84.104C65.3727 85.7467 65.83 86.9973 65.83 87.856C65.83 89.7413 65.2047 91.1227 63.954 92H56.534V88.752H62.33L62.414 88.584L57.374 79.54C56.646 78.2333 56.282 77.1693 56.282 76.348C56.282 74.4067 57.094 73.0907 58.718 72.4ZM76.1255 92L75.5375 88.892H71.1135L70.5255 92H66.7175L70.4975 72.4H76.2935L79.8775 92H76.1255ZM73.2695 76.04L72.1775 82.564L71.5615 85.896H75.0615L74.4175 82.564L73.3255 76.04H73.2695ZM81.5081 92V72.4H91.5601V75.76H85.3441V80.436H90.8881V83.684H85.3441V88.752H91.6721V92H81.5081ZM100.98 83.04H100.868H100.98L102.464 76.908L103.668 72.4H107.168L108.428 92H104.76L104.228 81.304H104.088L102.072 89.2H99.7761L97.7601 81.304H97.6201L97.0881 92H93.4201L94.6801 72.4H98.1801L99.3841 76.908L100.868 83.04H100.98Z" fill="black"/>
</svg>
