<svg width="95" height="95" viewBox="0 0 95 95" fill="none" xmlns="http://www.w3.org/2000/svg">
<circle cx="47.5" cy="47.5" r="44.5" fill="#41322A" stroke="#FF7E1B" stroke-width="6"/>
<ellipse cx="49.8046" cy="49.175" rx="28.9545" ry="28" fill="#FF7E1B"/>
<path d="M43.35 44.0808C43.0808 43.2461 42.8385 42.4385 42.5692 41.6038C42.3 40.7692 42.0577 39.9885 41.8423 39.2077C41.6269 38.4538 41.4385 37.7538 41.25 37.1077H41.1962C40.9538 38.2654 40.6577 39.4231 40.2808 40.5808C39.8769 41.8731 39.4731 43.2192 39.0423 44.5654C38.6654 45.9385 38.2615 47.2038 37.8577 48.3346H44.6962C44.5346 47.7665 44.3192 47.0962 44.0769 46.3935C43.8346 45.6692 43.5923 44.8885 43.35 44.0808V44.0808ZM68.1731 16H26.4423C20.1154 16 15 21.1154 15 27.4423V67.5577C15 73.8846 20.1154 79 26.4423 79H68.1731C74.5 79 79.6154 73.8846 79.6154 67.5577V27.4423C79.6154 21.1154 74.5 16 68.1731 16ZM54.5769 60.5038H48.9473C48.7615 60.5308 48.5731 60.3962 48.5192 60.2077L46.3115 53.8H36.2962L34.25 60.1269C34.1962 60.3692 33.9808 60.5308 33.7385 60.5065H28.6769C28.3808 60.5065 28.3 60.3423 28.3808 60.0219L37.05 35.0615C37.1308 34.7923 37.2115 34.4962 37.3192 34.1731C37.4269 33.6077 37.4808 33.0154 37.4808 32.4231C37.4538 32.2885 37.5615 32.1538 37.6962 32.1269H44.6692C44.8846 32.1269 44.9923 32.2077 45.0192 32.3423L54.8462 60.0731C54.9269 60.3665 54.8462 60.5038 54.5769 60.5038V60.5038ZM63.7308 60.1C63.7308 60.3962 63.6258 60.5308 63.3835 60.5308H58.1038C57.8346 60.5308 57.7 60.3665 57.7 60.1V39.3692C57.7 39.1 57.8104 38.9923 58.0527 38.9923H63.3835C63.6258 38.9923 63.7308 39.1269 63.7308 39.3692V60.1V60.1ZM63.1681 35.7885C62.8501 36.1114 62.4667 36.3625 62.0437 36.5251C61.6207 36.6876 61.1678 36.7577 60.7154 36.7308C59.8269 36.7577 58.9654 36.4077 58.3165 35.7885C57.6997 35.114 57.3712 34.225 57.4012 33.3115C57.3742 32.3962 57.7242 31.5346 58.3677 30.9154C59.0192 30.2962 59.8808 29.9731 60.7692 29.9731C61.8219 29.9731 62.6242 30.2962 63.2192 30.9154C63.8115 31.5615 64.1346 32.4231 64.1077 33.3115C64.1346 34.2269 63.8115 35.1154 63.1681 35.7885V35.7885Z" fill="#41322A"/>
</svg>
