<svg width="510" height="510" viewBox="0 0 510 510" fill="none" xmlns="http://www.w3.org/2000/svg">
<circle cx="255" cy="255" r="255" fill="#333333"/>
<path d="M390.267 153.35C388.913 151.554 387.467 149.829 385.933 148.183C387.476 144.074 388.647 139.835 389.433 135.517C391.755 119.72 389.739 103.589 383.6 88.85C383.6 88.85 364.933 83.0167 322.1 111.85C303.915 106.829 285.132 104.306 266.267 104.35C247.347 104.317 228.51 106.84 210.267 111.85C167.433 82.6833 148.767 88.85 148.767 88.85C142.701 103.433 140.686 119.383 142.933 135.017C143.724 139.514 144.952 143.924 146.6 148.183C145.1 149.85 143.6 151.683 142.267 153.35C129.83 168.95 123.228 188.402 123.6 208.35C123.56 213.081 123.783 217.81 124.267 222.517C129.6 296.35 178.767 313.517 225.6 318.85C218.971 325.014 214.477 333.128 212.767 342.017C211.218 347.945 210.489 354.057 210.6 360.183V382.017C191.95 383.683 172.817 380.967 166.883 364.333C160.514 348.413 149.951 334.515 136.317 324.117C135.32 323.577 134.372 322.953 133.483 322.25C132.286 319.103 130.165 316.393 127.398 314.474C124.632 312.555 121.35 311.519 117.983 311.5H117.9C113.494 311.5 109.267 313.244 106.144 316.352C103.021 319.46 101.255 323.678 101.233 328.083C101.183 341.617 114.733 350.367 120.283 353.333C126.768 359.867 131.984 367.547 135.667 375.983C141.733 393.033 159.483 418.95 210.1 415.583L210.133 417.217L210.2 421.683C210.2 426.104 211.956 430.343 215.082 433.468C218.207 436.594 222.446 438.35 226.867 438.35H305.433C309.854 438.35 314.093 436.594 317.218 433.468C320.344 430.343 322.1 426.104 322.1 421.683C322.1 421.683 322.233 369.017 322.233 360.183C322.344 354.057 321.615 347.945 320.067 342.017L320.033 341.917L320.1 342.017C319.95 341.433 319.733 340.967 319.567 340.4C317.71 332.142 313.412 324.634 307.233 318.85L307.433 319.2L307.1 318.867C353.933 313.533 402.767 296.033 408.1 222.533C408.584 217.827 408.806 213.098 408.767 208.367C409.062 188.459 402.534 169.049 390.267 153.367V153.35Z" fill="#EEE7E7"/>
</svg>
