<svg width="95" height="95" viewBox="0 0 95 95" fill="none" xmlns="http://www.w3.org/2000/svg">
<circle cx="47.5" cy="47.5" r="44.5" fill="#19003E" stroke="#D392FF" stroke-width="6"/>
<ellipse cx="49.8046" cy="49.175" rx="28.9545" ry="28" fill="#D392FF"/>
<path d="M38.6273 44.635C38.3624 43.8137 38.1239 43.0188 37.859 42.1974C37.594 41.3761 37.3556 40.6077 37.1436 39.8393C36.9316 39.0974 36.7462 38.4085 36.5607 37.7726H36.5077C36.2692 38.912 35.9778 40.0513 35.6068 41.1906C35.2094 42.4624 34.812 43.7872 34.388 45.112C34.0436 46.4632 33.6197 47.7085 33.2222 48.8214H39.9521C39.7932 48.265 39.5812 47.6026 39.3427 46.9137C39.1043 46.1983 38.8658 45.4299 38.6273 44.635ZM61.3607 43.8667C59.9034 43.7872 58.5256 44.5556 57.8368 45.8803C57.5188 46.4897 57.3333 47.1256 57.2538 47.788H62.8418C63.5307 47.788 64.0341 47.788 64.352 47.7615C64.564 47.735 64.776 47.682 64.9615 47.5496V47.2846C64.9512 46.8232 64.8497 46.3684 64.6628 45.9465C64.476 45.5245 64.2074 45.1437 63.8727 44.8259C63.538 44.5082 63.1437 44.2599 62.7126 44.0952C62.2814 43.9306 61.822 43.8529 61.3607 43.8667ZM68.3291 17H27.2607C21.0342 17 16 22.0342 16 28.2607V67.7393C16 73.9658 21.0342 79 27.2607 79H68.3291C74.5556 79 79.5897 73.9658 79.5897 67.7393V28.2607C79.5897 22.0342 74.5556 17 68.3291 17ZM49.6761 60.7471H44.1385C43.953 60.7736 43.7675 60.6385 43.7145 60.4556L41.5419 54.0967H31.6855L29.6718 60.3497C29.6188 60.5881 29.4068 60.7471 29.1684 60.7206H24.1872C23.8957 60.7206 23.8162 60.5616 23.8957 60.2437L32.4273 35.7855C32.5068 35.5205 32.5863 35.282 32.6923 34.9641C32.7983 34.4077 32.8513 33.8248 32.8513 33.2419C32.8248 33.1094 32.9308 32.9769 33.0632 32.9504H39.9256C40.1111 32.9504 40.2436 33.0299 40.2701 33.1624L49.941 60.3205C50.0205 60.612 49.9437 60.7471 49.6761 60.7471ZM70.4779 50.1726C70.4222 50.6734 70.3957 51.047 70.3692 51.2855C70.3427 51.4709 70.1864 51.6299 69.9983 51.6299C69.8393 51.6299 69.5479 51.6564 69.1239 51.6855C68.7026 51.7385 68.1966 51.7624 67.5898 51.7624C66.9804 51.7624 66.3419 51.6564 65.6556 51.6564H57.2565C57.3598 52.4778 57.6274 53.2991 58.0779 54.0145C58.5467 54.7277 59.2199 55.2827 60.0094 55.6069C61.0692 56.0573 62.2377 56.2958 63.4035 56.2693C64.3309 56.2402 65.2556 56.1633 66.1564 55.9779C66.9658 55.8746 67.7589 55.6698 68.5172 55.3685C68.6497 55.2651 68.7291 55.3155 68.7291 55.5804V59.6369C68.7291 59.7403 68.7026 59.8489 68.6735 59.9522C68.6259 60.0259 68.5637 60.089 68.4907 60.1377C67.6428 60.5086 66.7685 60.7736 65.8411 60.9326C64.5932 61.171 63.3505 61.277 62.0787 61.2505C60.0624 61.2505 58.3693 60.9326 56.9915 60.3232C55.6953 59.7587 54.5506 58.8963 53.6504 57.8061C52.8052 56.7727 52.1932 55.6069 51.8222 54.3351C51.4515 53.0783 51.2649 51.7744 51.2685 50.4641C51.2685 49.036 51.4804 47.6291 51.9309 46.2513C52.3548 44.9265 53.0172 43.7077 53.918 42.6214C54.7924 41.5615 55.8761 40.7137 57.1214 40.1043C58.3693 39.4949 59.8504 39.2829 61.5462 39.2829C62.959 39.2499 64.3615 39.5305 65.653 40.1043C66.7393 40.5812 67.6932 41.2966 68.435 42.2239C69.1239 43.1248 69.6803 44.1316 70.0274 45.2444C70.3692 46.3043 70.5282 47.3906 70.5282 48.4769C70.5282 49.1128 70.5017 49.6692 70.4779 50.1726Z" fill="#19003E"/>
</svg>
