<svg width="44" height="65" viewBox="0 0 44 65" fill="none" xmlns="http://www.w3.org/2000/svg">
<g clip-path="url(#clip0_14_69)">
<path d="M10.575 0H21.1075V21.0653H10.5751C-3.31485 20.5224 -3.45513 0.570273 10.575 0ZM10.575 43.0317H21.1075V21.9663H10.5751C-3.45501 22.5366 -3.31472 42.4887 10.5751 43.0317H10.575ZM32.5413 0H22.0085V21.0653H32.5413C46.6181 20.312 46.4426 0.42999 32.5413 0ZM21.1075 54.4654V43.9326H10.5751C1.98011 43.9326 -3.45501 54.0097 2.52258 61.2475C8.22176 68.4215 21.1076 64.8449 21.1076 54.4654H21.1075ZM43.0954 32.499C43.0954 24.4045 34.2724 19.3181 27.2523 23.3653C20.2322 27.4126 20.232 37.5855 27.2523 41.6328C34.2725 45.68 43.0954 40.5935 43.0954 32.499Z" fill="white"/>
</g>
<defs>
<clipPath id="clip0_14_69">
<rect width="43.17" height="65" fill="white"/>
</clipPath>
</defs>
</svg>
