<svg width="65" height="65" viewBox="0 0 65 65" fill="none" xmlns="http://www.w3.org/2000/svg">
<path d="M59.1667 32.0833C59.1667 17.1252 47.0415 5 32.0833 5C17.1252 5 5 17.1252 5 32.0833C5 47.0415 17.1252 59.1667 32.0833 59.1667" stroke="#333333" stroke-width="4.0625" stroke-linecap="round" stroke-linejoin="round"/>
<path d="M6.70624 22.6042H57.4604M34.7917 5.13542C34.7917 5.13542 42.9167 15.8333 42.9167 32.0833L34.7917 5.13542ZM29.375 59.0313C29.375 59.0313 21.25 48.3333 21.25 32.0833C21.25 15.8333 29.375 5.13542 29.375 5.13542V59.0313ZM6.70624 41.5625H32.0833H6.70624Z" stroke="#333333" stroke-width="4.0625" stroke-linecap="round" stroke-linejoin="round"/>
<path d="M58.839 48.1086C60.1769 48.9319 60.0929 50.9333 58.7171 51.0904L51.7648 51.8786L48.6475 58.1402C48.03 59.3833 46.1206 58.774 45.8038 57.2356L42.4048 40.6715C42.1367 39.3715 43.3067 38.5536 44.4361 39.2496L58.839 48.1086V48.1086Z" stroke="#333333" stroke-width="4.0625"/>
</svg>
