<svg width="512" height="512" viewBox="0 0 512 512" fill="none" xmlns="http://www.w3.org/2000/svg">
<rect width="512" height="512" rx="256" fill="#EEE7E7"/>
<path d="M235.178 216.211C234.401 214.144 233.012 212.362 231.197 211.105C229.381 209.847 227.225 209.174 225.016 209.174C222.808 209.174 220.652 209.847 218.836 211.105C217.021 212.362 215.632 214.144 214.855 216.211L193.93 272.2C193.308 273.926 193.392 275.827 194.163 277.492C194.934 279.157 196.33 280.45 198.048 281.092C199.767 281.734 201.669 281.673 203.343 280.922C205.016 280.171 206.326 278.791 206.989 277.08L210.33 266.995H238.376C238.807 266.995 239.237 266.952 239.66 266.866L243.044 277.08C243.354 277.951 243.834 278.752 244.456 279.436C245.079 280.12 245.831 280.673 246.669 281.064C247.508 281.454 248.415 281.673 249.339 281.71C250.263 281.746 251.185 281.597 252.051 281.274C252.918 280.95 253.711 280.457 254.385 279.824C255.058 279.19 255.599 278.429 255.976 277.585C256.353 276.74 256.558 275.829 256.579 274.905C256.601 273.98 256.438 273.061 256.1 272.2L235.178 216.211ZM216.5 254.425L226.421 224.48L236.342 254.425H216.5Z" fill="#EEE7E7"/>
<path d="M202.965 216.239C202.965 214.39 202.231 212.617 200.924 211.31C199.617 210.003 197.844 209.268 195.995 209.268H153.423C151.574 209.268 149.801 210.002 148.494 211.31C147.186 212.617 146.452 214.39 146.452 216.239C146.452 218.088 147.186 219.861 148.494 221.168C149.801 222.476 151.574 223.21 153.423 223.21H167.738V274.637C167.738 276.486 168.472 278.258 169.779 279.566C171.087 280.873 172.859 281.607 174.708 281.607C176.557 281.607 178.329 280.873 179.637 279.566C180.944 278.258 181.678 276.486 181.678 274.637V223.21H196C197.848 223.208 199.619 222.473 200.925 221.166C202.231 219.859 202.965 218.087 202.965 216.239V216.239Z" fill="#EEE7E7"/>
<path d="M297.1 267.065H277.3V216.239C277.3 214.39 276.566 212.618 275.259 211.31C273.951 210.003 272.179 209.269 270.33 209.269C268.481 209.269 266.709 210.003 265.401 211.31C264.094 212.618 263.36 214.39 263.36 216.239V272.609C263.362 274.836 264.247 276.972 265.822 278.547C267.397 280.122 269.533 281.007 271.76 281.009H297.1C298.949 281.009 300.721 280.275 302.029 278.968C303.336 277.66 304.07 275.888 304.07 274.039C304.07 272.19 303.336 270.418 302.029 269.11C300.721 267.803 298.949 267.069 297.1 267.069V267.065Z" fill="#EEE7E7"/>
<path d="M338.962 241.494L359.6 221.548C360.889 220.276 361.624 218.547 361.645 216.737C361.666 214.926 360.972 213.18 359.714 211.878C358.455 210.577 356.734 209.824 354.924 209.784C353.113 209.745 351.361 210.421 350.046 211.666L324.311 238.43V216.239C324.311 214.286 323.535 212.413 322.154 211.033C320.774 209.652 318.901 208.876 316.948 208.876C314.995 208.876 313.122 209.652 311.742 211.033C310.361 212.413 309.585 214.286 309.585 216.239V274.639C309.585 276.592 310.361 278.465 311.742 279.845C313.122 281.226 314.995 282.002 316.948 282.002C318.901 282.002 320.774 281.226 322.154 279.845C323.535 278.465 324.311 276.592 324.311 274.639V255.656L329.034 251.09L349.467 278.577C350.652 280.096 352.392 281.082 354.305 281.318C356.217 281.554 358.145 281.021 359.664 279.836C361.183 278.651 362.169 276.911 362.405 274.998C362.641 273.086 362.108 271.158 360.923 269.639L338.962 241.494Z" fill="#EEE7E7"/>
<path d="M256 0C114.615 0 0 114.615 0 256C0 397.385 114.615 512 256 512C397.385 512 512 397.385 512 256C512 114.615 397.385 0 256 0ZM256 358.935C246.387 358.939 236.789 358.195 227.292 356.71L169.305 397.377C168.689 397.809 167.955 398.042 167.202 398.043C166.45 398.044 165.715 397.814 165.097 397.385C164.479 396.955 164.008 396.345 163.748 395.639C163.488 394.933 163.451 394.164 163.642 393.436L177.421 340.92C136.493 320.37 109.333 284.245 109.333 243.106C109.333 179.135 175 127.277 256 127.277C337 127.277 402.667 179.135 402.667 243.106C402.667 307.077 337 358.935 256 358.935Z" fill="#EEE7E7"/>
<path d="M235.178 216.211C234.401 214.144 233.012 212.362 231.197 211.105C229.381 209.847 227.225 209.174 225.016 209.174C222.808 209.174 220.652 209.847 218.836 211.105C217.021 212.362 215.632 214.144 214.855 216.211L193.93 272.2C193.308 273.926 193.392 275.827 194.163 277.492C194.934 279.157 196.33 280.45 198.048 281.092C199.767 281.734 201.669 281.673 203.343 280.922C205.016 280.171 206.326 278.791 206.989 277.08L210.33 266.995H238.376C238.807 266.995 239.237 266.952 239.66 266.866L243.044 277.08C243.354 277.951 243.834 278.752 244.456 279.436C245.079 280.12 245.831 280.673 246.669 281.064C247.508 281.454 248.415 281.673 249.339 281.71C250.263 281.746 251.185 281.597 252.051 281.274C252.918 280.95 253.711 280.457 254.385 279.824C255.058 279.19 255.599 278.429 255.976 277.585C256.353 276.74 256.558 275.829 256.579 274.905C256.601 273.98 256.438 273.061 256.1 272.2L235.178 216.211ZM216.5 254.425L226.421 224.48L236.342 254.425H216.5Z" fill="#333333"/>
<path d="M202.965 216.239C202.965 214.39 202.231 212.617 200.924 211.31C199.617 210.003 197.844 209.268 195.995 209.268H153.423C151.574 209.268 149.801 210.002 148.494 211.31C147.186 212.617 146.452 214.39 146.452 216.239C146.452 218.088 147.186 219.861 148.494 221.168C149.801 222.476 151.574 223.21 153.423 223.21H167.738V274.637C167.738 276.486 168.472 278.258 169.779 279.566C171.087 280.873 172.859 281.607 174.708 281.607C176.557 281.607 178.329 280.873 179.637 279.566C180.944 278.258 181.678 276.486 181.678 274.637V223.21H196C197.848 223.208 199.619 222.473 200.925 221.166C202.231 219.859 202.965 218.087 202.965 216.239V216.239Z" fill="#333333"/>
<path d="M297.1 267.065H277.3V216.239C277.3 214.39 276.566 212.618 275.259 211.31C273.951 210.003 272.179 209.269 270.33 209.269C268.481 209.269 266.709 210.003 265.401 211.31C264.094 212.618 263.36 214.39 263.36 216.239V272.609C263.362 274.836 264.247 276.972 265.822 278.547C267.397 280.122 269.533 281.007 271.76 281.009H297.1C298.949 281.009 300.721 280.275 302.029 278.968C303.336 277.66 304.07 275.888 304.07 274.039C304.07 272.19 303.336 270.418 302.029 269.11C300.721 267.803 298.949 267.069 297.1 267.069V267.065Z" fill="#333333"/>
<path d="M338.962 241.494L359.6 221.548C360.889 220.276 361.624 218.547 361.645 216.737C361.666 214.926 360.972 213.18 359.714 211.878C358.455 210.577 356.734 209.824 354.924 209.784C353.113 209.745 351.361 210.421 350.046 211.666L324.311 238.43V216.239C324.311 214.286 323.535 212.413 322.154 211.033C320.774 209.652 318.901 208.876 316.948 208.876C314.995 208.876 313.122 209.652 311.742 211.033C310.361 212.413 309.585 214.286 309.585 216.239V274.639C309.585 276.592 310.361 278.465 311.742 279.845C313.122 281.226 314.995 282.002 316.948 282.002C318.901 282.002 320.774 281.226 322.154 279.845C323.535 278.465 324.311 276.592 324.311 274.639V255.656L329.034 251.09L349.467 278.577C350.652 280.096 352.392 281.082 354.305 281.318C356.217 281.554 358.145 281.021 359.664 279.836C361.183 278.651 362.169 276.911 362.405 274.998C362.641 273.086 362.108 271.158 360.923 269.639L338.962 241.494Z" fill="#333333"/>
<path d="M256 0C114.615 0 0 114.615 0 256C0 397.385 114.615 512 256 512C397.385 512 512 397.385 512 256C512 114.615 397.385 0 256 0ZM256 358.935C246.387 358.939 236.789 358.195 227.292 356.71L169.305 397.377C168.689 397.809 167.955 398.042 167.202 398.043C166.45 398.044 165.715 397.814 165.097 397.385C164.479 396.955 164.008 396.345 163.748 395.639C163.488 394.933 163.451 394.164 163.642 393.436L177.421 340.92C136.493 320.37 109.333 284.245 109.333 243.106C109.333 179.135 175 127.277 256 127.277C337 127.277 402.667 179.135 402.667 243.106C402.667 307.077 337 358.935 256 358.935Z" fill="#333333"/>
</svg>
