<svg width="60" height="60" viewBox="0 0 60 60" fill="none" xmlns="http://www.w3.org/2000/svg">
<path d="M55.3125 0H4.6875C2.0975 0 0 2.1 0 4.6875V55.3125C0 57.9025 2.1 60 4.6875 60H55.3125C57.9025 60 60 57.9 60 55.3125V4.6875C60 2.0975 57.9 0 55.3125 0ZM30 46.875C28.5225 46.875 27.075 46.7725 25.67 46.575C24.265 47.565 16.1375 53.2725 15.37 53.38C15.37 53.38 15.0575 53.5025 14.79 53.345C14.5225 53.1875 14.57 52.7725 14.57 52.7725C14.65 52.2225 16.6775 45.2275 17.05 43.94C10.1875 40.54 5.625 34.5175 5.625 27.6575C5.625 17.0425 16.5375 8.4375 30 8.4375C43.4625 8.4375 54.375 17.0425 54.375 27.6575C54.375 38.27 43.4625 46.875 30 46.875ZM20.125 24.6675H17.93V33.0225C17.93 33.7625 17.3 34.365 16.5225 34.365C15.745 34.365 15.1175 33.765 15.1175 33.0225V24.6675H12.9225C12.575 24.6418 12.2502 24.4857 12.0131 24.2304C11.7759 23.9752 11.6442 23.6396 11.6442 23.2912C11.6442 22.9429 11.7759 22.6073 12.0131 22.3521C12.2502 22.0968 12.575 21.9407 12.9225 21.915H20.1225C20.47 21.9407 20.7948 22.0968 21.0319 22.3521C21.2691 22.6073 21.4008 22.9429 21.4008 23.2912C21.4008 23.6396 21.2691 23.9752 21.0319 24.2304C20.7948 24.4857 20.47 24.6418 20.1225 24.6675H20.125ZM47.5925 32.06C47.7048 32.207 47.7867 32.3749 47.8335 32.5539C47.8802 32.7329 47.891 32.9193 47.865 33.1025C47.8393 33.2852 47.7777 33.461 47.6837 33.6197C47.5898 33.7785 47.4653 33.9171 47.3175 34.0275C47.0747 34.2126 46.7778 34.3127 46.4725 34.3125C46.2542 34.3137 46.0388 34.2636 45.8434 34.1664C45.648 34.0691 45.4781 33.9273 45.3475 33.7525L42.05 29.385L41.5625 29.8725V32.94C41.5618 33.3127 41.4137 33.6699 41.1504 33.9336C40.8871 34.1974 40.5302 34.3462 40.1575 34.3475C39.7842 34.3475 39.4262 34.1992 39.1622 33.9353C38.8983 33.6713 38.75 33.3133 38.75 32.94V23.32C38.7653 22.9573 38.9201 22.6145 39.1822 22.3633C39.4442 22.1121 39.7932 21.9718 40.1562 21.9718C40.5193 21.9718 40.8683 22.1121 41.1303 22.3633C41.3924 22.6145 41.5472 22.9573 41.5625 23.32V26.345L45.4875 22.42C45.59 22.3189 45.7114 22.239 45.8448 22.1849C45.9782 22.1308 46.121 22.1037 46.265 22.105C46.615 22.105 46.97 22.2575 47.235 22.5225C47.4763 22.759 47.623 23.0755 47.6475 23.4125C47.6605 23.5693 47.6395 23.7271 47.586 23.8751C47.5325 24.023 47.4477 24.1577 47.3375 24.27L44.1325 27.4725L47.595 32.06H47.5925ZM26.7175 23.305C26.48 22.63 25.76 21.935 24.8425 21.915C23.9275 21.935 23.2075 22.63 22.97 23.3025L19.6075 32.155C19.18 33.48 19.5525 33.975 19.94 34.155C20.2202 34.2825 20.5246 34.3482 20.8325 34.3475C21.42 34.3475 21.8675 34.11 22.0025 33.7275L22.7 31.9025H26.9875L27.685 33.7275C27.82 34.11 28.2675 34.3475 28.855 34.3475C29.163 34.3472 29.4674 34.2807 29.7475 34.1525C30.135 33.975 30.5075 33.4825 30.08 32.1525L26.7175 23.3025V23.305ZM23.44 29.4125L24.845 25.4225L26.2475 29.4125H23.44ZM38.2025 32.87C38.1946 33.2197 38.0483 33.5519 37.7957 33.7938C37.543 34.0357 37.2047 34.1674 36.855 34.16H32.345C32.1716 34.164 31.9992 34.1338 31.8375 34.0711C31.6758 34.0084 31.5281 33.9145 31.4027 33.7947C31.2774 33.6749 31.1768 33.5316 31.1069 33.3729C31.0369 33.2142 30.9989 33.0434 30.995 32.87V23.32C30.995 22.545 31.64 21.915 32.4325 21.915C33.225 21.915 33.8675 22.545 33.8675 23.32V31.5825H36.855C37.5975 31.5825 38.205 32.16 38.205 32.87H38.2025Z" fill="#333333"/>
</svg>
