<svg width="95" height="95" viewBox="0 0 95 95" fill="none" xmlns="http://www.w3.org/2000/svg">
<circle cx="47.5" cy="47.5" r="44.5" fill="#28253A" stroke="#37C5FF" stroke-width="6"/>
<ellipse cx="50.1961" cy="49.5785" rx="28.4375" ry="27.5" fill="#37C5FF"/>
<path d="M41.8563 38.26C40.885 37.8662 39.835 37.7087 38.7588 37.735C38.0763 37.735 37.4725 37.735 36.9737 37.7612C36.4487 37.735 36.0812 37.7612 35.8975 37.7875V46.6075C36.265 46.6338 36.6062 46.66 36.9212 46.66H38.3125C39.3362 46.66 40.36 46.5025 41.3312 46.1875C42.1712 45.9512 42.9063 45.4525 43.4838 44.7962C44.035 44.14 44.2975 43.2475 44.2975 42.0925C44.3237 41.2787 44.1138 40.465 43.6938 39.7562C43.2561 39.0747 42.6124 38.5505 41.8563 38.26ZM67.8438 16.945H27.1562C20.9875 16.945 16 21.9325 16 28.1012V67.2111C16 73.3799 20.9875 78.3674 27.1562 78.3674H67.8438C74.0125 78.3674 79 73.3799 79 67.2111V28.1012C79 21.9325 74.0125 16.945 67.8438 16.945ZM48.4424 47.5262C47.395 48.9962 45.925 50.0987 44.2188 50.7287C42.4337 51.385 40.465 51.6212 38.3125 51.6212C37.6825 51.6212 37.2625 51.6212 37 51.595C36.7375 51.5687 36.37 51.5687 35.8713 51.5687V59.9924C35.8975 60.1761 35.7663 60.3363 35.5825 60.3625H30.49C30.28 60.3625 30.175 60.2549 30.175 60.0186V33.01C30.175 32.8262 30.2537 32.7212 30.4375 32.7212C30.8838 32.7212 31.3037 32.7212 31.9075 32.695C32.5375 32.6687 33.1938 32.6687 33.9025 32.6425C34.6113 32.6162 35.3725 32.6162 36.1863 32.59C37 32.5637 37.7875 32.5637 38.575 32.5637C40.7275 32.5637 42.5125 32.8262 43.9825 33.3775C45.295 33.8237 46.5025 34.5587 47.5 35.53C48.34 36.37 48.9962 37.3938 49.4162 38.5225C49.8074 39.625 50.0174 40.7537 50.0174 41.935C50.02 44.1925 49.495 46.0562 48.4424 47.5262V47.5262ZM67.0563 57.7375C66.3213 58.7875 65.2949 59.5986 64.1162 60.0764C62.83 60.625 61.255 60.9111 59.3624 60.9111C58.1575 60.9111 56.9736 60.8088 55.795 60.5725C54.8762 60.4124 53.9575 60.1263 53.1175 59.7325C52.9338 59.6301 52.7999 59.4464 52.8261 59.2364V54.6689C52.8261 54.5927 52.855 54.4851 52.9337 54.4326C53.0099 54.3801 53.0912 54.4064 53.17 54.4589C54.1937 55.0626 55.27 55.4853 56.425 55.7451C57.4199 56.0076 58.4699 56.1389 59.5225 56.1389C60.52 56.1389 61.2287 56.005 61.7012 55.7687C62.1212 55.585 62.41 55.1387 62.41 54.6662C62.41 54.2961 62.2 53.9575 61.78 53.6163C61.36 53.2776 60.4964 52.8839 59.2101 52.3799C57.8714 51.9074 56.6403 51.2774 55.4826 50.4925C54.6612 49.9042 53.9792 49.1425 53.485 48.2612C53.0678 47.4307 52.8613 46.5103 52.8839 45.5811C52.8839 44.4524 53.1989 43.3761 53.779 42.4049C54.4353 41.3549 55.4039 40.5149 56.5326 39.9899C57.7637 39.3625 59.3125 39.0737 61.1762 39.0737C62.2525 39.0737 63.355 39.1525 64.4313 39.31C65.2188 39.415 65.98 39.625 66.6887 39.9137C66.7911 39.94 66.8987 40.045 66.9512 40.15C66.9775 40.255 67.0038 40.36 67.0038 40.465V44.7438C67.0038 44.8488 66.9512 44.9537 66.8725 45.0062C66.6362 45.0587 66.505 45.0587 66.4 45.0062C65.6125 44.5862 64.7725 44.2975 63.88 44.1137C62.9087 43.9037 61.9375 43.7725 60.94 43.7725C60.415 43.7463 59.8637 43.825 59.3624 43.9562C59.0237 44.035 58.7324 44.2187 58.5486 44.4812C58.4174 44.6912 58.3386 44.9538 58.3386 45.19C58.3386 45.4263 58.4436 45.6625 58.6037 45.8725C58.84 46.1612 59.1524 46.3975 59.4962 46.5812C60.0974 46.8962 60.73 47.185 61.3574 47.4475C62.7775 47.92 64.1425 48.5762 65.4025 49.3637C66.2687 49.9124 66.9775 50.65 67.4736 51.5425C67.8936 52.3772 68.1036 53.3012 68.0774 54.2436C68.1063 55.48 67.7388 56.7111 67.0563 57.7375V57.7375Z" fill="#28253A"/>
</svg>
