<svg width="95" height="95" viewBox="0 0 95 95" fill="none" xmlns="http://www.w3.org/2000/svg">
<circle cx="47.5" cy="47.5" r="47.5" fill="#1B75B2"/>
<path d="M63.125 61.4687V33.0937L44.375 47.2812L63.125 61.4687ZM16.9375 38.7187C16.4839 38.2338 16.2265 37.5978 16.2149 36.9339C16.2034 36.27 16.4386 35.6254 16.875 35.125L20.625 31.6562C21.25 31.0937 22.7812 30.8437 23.9062 31.6562L34.5938 39.8125L59.375 17.1562C60.375 16.1562 62.0937 15.75 64.0625 16.7812L76.5625 22.75C77.6875 23.4062 78.75 24.4375 78.75 26.3437V68.5312C78.75 69.7812 77.8437 71.125 76.875 71.6562L63.125 78.2187C62.125 78.625 60.25 78.25 59.5938 77.5937L34.5313 54.7812L23.9062 62.9062C22.7187 63.7187 21.25 63.5 20.625 62.9062L16.875 59.4687C15.875 58.4375 16 56.75 17.0313 55.7187L26.4063 47.2812" fill="white"/>
</svg>
