<svg width="95" height="95" viewBox="0 0 95 95" fill="none" xmlns="http://www.w3.org/2000/svg">
<circle cx="47.5" cy="47.5" r="47.5" fill="#2965F1"/>
<g clip-path="url(#clip0_2_127)">
<path fill-rule="evenodd" clip-rule="evenodd" d="M71.875 33.2812V71.875C71.875 74.0299 71.019 76.0965 69.4952 77.6202C67.9715 79.144 65.9049 80 63.75 80H59.6875V75.9375H63.75C64.8274 75.9375 65.8608 75.5095 66.6226 74.7476C67.3845 73.9858 67.8125 72.9524 67.8125 71.875V33.2812H59.6875C58.0713 33.2812 56.5214 32.6392 55.3786 31.4964C54.2358 30.3536 53.5938 28.8037 53.5938 27.1875V19.0625H31.25C30.1726 19.0625 29.1392 19.4905 28.3774 20.2524C27.6155 21.0142 27.1875 22.0476 27.1875 23.125V59.6875H23.125V23.125C23.125 20.9701 23.981 18.9035 25.5048 17.3798C27.0285 15.856 29.0951 15 31.25 15H53.5938L71.875 33.2812ZM28.8003 75.2916C28.8236 75.9317 28.9805 76.5598 29.2611 77.1356C29.5416 77.7115 29.9396 78.2222 30.4294 78.635C30.9575 79.0737 31.6034 79.415 32.3713 79.6588C33.1431 79.9066 34.0409 80.0284 35.0728 80.0284C36.4459 80.0284 37.6078 79.8131 38.5625 79.3866C39.5213 78.96 40.2525 78.3628 40.7522 77.5991C41.26 76.8313 41.5119 75.9416 41.5119 74.9341C41.5119 74.0241 41.3291 73.2684 40.9675 72.6591C40.5957 72.0504 40.0703 71.5502 39.4441 71.2088C38.7245 70.8112 37.9494 70.5236 37.1447 70.3556L34.6219 69.7706C34.0272 69.6614 33.4656 69.4167 32.9806 69.0556C32.7953 68.9127 32.6459 68.7284 32.5443 68.5175C32.4427 68.3067 32.3918 68.075 32.3956 67.8409C32.3956 67.2072 32.6475 66.6872 33.1472 66.2809C33.655 65.8706 34.3497 65.6634 35.2272 65.6634C35.8081 65.6634 36.3078 65.7569 36.7303 65.9397C37.1192 66.0982 37.4626 66.3509 37.7297 66.675C37.9797 66.9766 38.1476 67.3376 38.2172 67.7231H41.2641C41.2134 66.8958 40.9319 66.0993 40.4516 65.4237C39.9381 64.6946 39.236 64.1188 38.4203 63.7581C37.4227 63.3205 36.3405 63.1096 35.2516 63.1406C34.0613 63.1406 33.0131 63.3437 32.0991 63.75C31.185 64.1522 30.4741 64.725 29.9581 65.4603C29.4422 66.1997 29.1863 67.065 29.1863 68.0563C29.1863 68.8728 29.3488 69.5837 29.6819 70.185C30.015 70.7903 30.4944 71.2819 31.1119 71.6759C31.7294 72.0619 32.4606 72.3544 33.3016 72.5412L35.8122 73.1262C36.6531 73.3253 37.2787 73.5853 37.6931 73.9103C37.8956 74.0646 38.0575 74.2657 38.1651 74.4964C38.2726 74.7271 38.3226 74.9804 38.3106 75.2347C38.3185 75.6534 38.198 76.0646 37.9653 76.4128C37.7037 76.7695 37.3437 77.042 36.9294 77.1969C36.4784 77.3878 35.9178 77.4813 35.2516 77.4813C34.7763 77.4813 34.3456 77.4284 33.9516 77.3188C33.5924 77.2192 33.2521 77.0614 32.9441 76.8516C32.6736 76.6765 32.4421 76.4477 32.2639 76.1793C32.0856 75.9109 31.9645 75.6087 31.9081 75.2916H28.8003V75.2916ZM18.2744 70.6278C18.2744 69.6203 18.4125 68.7591 18.6887 68.0563C18.9297 67.4072 19.3564 66.8435 19.9156 66.4353C20.4856 66.0542 21.1599 65.8597 21.8453 65.8788C22.4547 65.8788 22.995 66.0088 23.4622 66.2728C23.92 66.5174 24.3022 66.8827 24.5672 67.3291C24.8503 67.7989 25.0174 68.3295 25.0547 68.8769H28.1625V68.5844C28.1355 67.836 27.9533 67.1015 27.6274 66.4273C27.3015 65.7532 26.8391 65.1541 26.2694 64.6681C25.6857 64.1735 25.0108 63.7981 24.2828 63.5631C23.4901 63.2947 22.6578 63.1615 21.8209 63.1691C20.3747 63.1691 19.1397 63.4697 18.12 64.075C17.1044 64.6762 16.3325 65.5334 15.7962 66.6425C15.2681 67.7556 15 69.08 15 70.6197V72.6428C15 74.1825 15.26 75.5028 15.7841 76.6078C16.3163 77.7087 17.0922 78.5578 18.1078 79.1509C19.1234 79.74 20.3584 80.0325 21.8209 80.0325C23.0113 80.0325 24.0716 79.8091 25.01 79.3662C25.9444 78.9194 26.6919 78.31 27.2444 77.5219C27.8048 76.7152 28.1234 75.7652 28.1625 74.7837V74.475H25.0588C25.0204 74.9981 24.856 75.5041 24.5794 75.9497C24.3086 76.3811 23.927 76.7318 23.4744 76.9653C22.9671 77.2107 22.4087 77.3319 21.8453 77.3188C21.159 77.3382 20.4825 77.1514 19.9034 76.7825C19.3471 76.3864 18.9237 75.8312 18.6887 75.19C18.3917 74.3745 18.2511 73.5104 18.2744 72.6428V70.6319V70.6278ZM42.5438 77.1156C42.2742 76.5434 42.1209 75.9234 42.0928 75.2916H45.1966C45.253 75.6087 45.3741 75.9109 45.5523 76.1793C45.7305 76.4477 45.962 76.6765 46.2325 76.8516C46.5169 77.0506 46.8581 77.205 47.2481 77.3147C47.6341 77.4284 48.0647 77.4813 48.5441 77.4813C49.2103 77.4813 49.7669 77.3878 50.2219 77.1969C50.6362 77.042 50.9962 76.7695 51.2578 76.4128C51.49 76.0643 51.6105 75.6534 51.6031 75.2347C51.6146 74.9801 51.5641 74.7265 51.4558 74.4958C51.3475 74.2651 51.1848 74.0642 50.9816 73.9103C50.5713 73.5853 49.9416 73.3253 49.1006 73.1262L46.59 72.5453C45.8162 72.3815 45.0757 72.0876 44.4003 71.6759C43.8046 71.3099 43.3135 70.7964 42.9744 70.185C42.6288 69.5297 42.4568 68.7969 42.4747 68.0563C42.4747 67.065 42.7306 66.1997 43.2466 65.4603C43.7625 64.725 44.4775 64.1522 45.3875 63.7459C46.3016 63.3397 47.3537 63.1406 48.5441 63.1406C49.7791 63.1406 50.8353 63.3437 51.7088 63.7581C52.5903 64.1725 53.2688 64.7291 53.74 65.4237C54.2275 66.1144 54.4997 66.8822 54.5525 67.7231H51.5056C51.4361 67.3376 51.2682 66.9766 51.0181 66.675C50.7511 66.3509 50.4076 66.0982 50.0187 65.9397C49.542 65.7454 49.0303 65.6514 48.5156 65.6634C47.6381 65.6634 46.9434 65.8666 46.4356 66.2809C46.1975 66.4642 46.0058 66.7009 45.876 66.9719C45.7461 67.2428 45.6818 67.5405 45.6881 67.8409C45.6881 68.3325 45.8791 68.7347 46.2691 69.0597C46.7544 69.4193 47.316 69.6626 47.9103 69.7706L50.4331 70.3516C51.3147 70.5547 52.0825 70.8391 52.7325 71.2088C53.3825 71.5744 53.8903 72.0619 54.2559 72.6631C54.6216 73.2644 54.8044 74.0241 54.8044 74.9381C54.8044 75.9416 54.5484 76.8312 54.0406 77.6031C53.4998 78.398 52.7388 79.0178 51.8509 79.3866C50.9003 79.8131 49.7384 80.0284 48.3653 80.0284C47.3334 80.0284 46.4316 79.9066 45.6637 79.6628C44.9563 79.4505 44.2968 79.1028 43.7219 78.6391C43.2259 78.2203 42.8243 77.701 42.5438 77.1156V77.1156Z" fill="white"/>
</g>
<defs>
<clipPath id="clip0_2_127">
<rect width="65" height="65" fill="white" transform="translate(15 15)"/>
</clipPath>
</defs>
</svg>
