<svg width="95" height="95" viewBox="0 0 95 95" fill="none" xmlns="http://www.w3.org/2000/svg">
<circle cx="47.5" cy="47.5" r="47.5" fill="#F5DE19"/>
<path opacity="0.2" d="M70.9375 35.7812H54.5312V19.375L70.9375 35.7812Z" fill="#333333"/>
<path d="M33.4375 59.2188V68.5937C33.4375 70.4586 32.6967 72.247 31.3781 73.5656C30.0595 74.8842 28.2711 75.625 26.4062 75.625C24.5414 75.625 22.753 74.8842 21.4344 73.5656C20.1158 72.247 19.375 70.4586 19.375 68.5937C19.375 67.9721 19.6219 67.376 20.0615 66.9365C20.501 66.4969 21.0971 66.25 21.7188 66.25C22.3404 66.25 22.9365 66.4969 23.376 66.9365C23.8156 67.376 24.0625 67.9721 24.0625 68.5937C24.0625 69.2154 24.3094 69.8115 24.749 70.251C25.1885 70.6906 25.7846 70.9375 26.4062 70.9375C27.0279 70.9375 27.624 70.6906 28.0635 70.251C28.5031 69.8115 28.75 69.2154 28.75 68.5937V59.2188C28.75 58.5971 28.9969 58.001 29.4365 57.5615C29.876 57.1219 30.4721 56.875 31.0938 56.875C31.7154 56.875 32.3115 57.1219 32.751 57.5615C33.1906 58.001 33.4375 58.5971 33.4375 59.2188ZM73.2812 35.8398V73.2812C73.2812 74.5245 72.7874 75.7167 71.9083 76.5958C71.0292 77.4749 69.837 77.9687 68.5938 77.9687H61.5625C60.9409 77.9687 60.3448 77.7218 59.9052 77.2823C59.4657 76.8427 59.2188 76.2466 59.2188 75.625C59.2188 75.0034 59.4657 74.4073 59.9052 73.9677C60.3448 73.5282 60.9409 73.2812 61.5625 73.2812H68.5938V38.125H54.5312C53.9096 38.125 53.3135 37.8781 52.874 37.4385C52.4344 36.999 52.1875 36.4029 52.1875 35.7813V21.7188H26.4062V47.5C26.4062 48.1216 26.1593 48.7177 25.7198 49.1573C25.2802 49.5968 24.6841 49.8438 24.0625 49.8438C23.4409 49.8438 22.8448 49.5968 22.4052 49.1573C21.9657 48.7177 21.7188 48.1216 21.7188 47.5V21.7188C21.7188 20.4756 22.2126 19.2833 23.0917 18.4042C23.9708 17.5251 25.163 17.0313 26.4062 17.0313H54.5312C55.1548 17.0277 55.7547 17.2698 56.2012 17.7051L72.5781 34.1113C72.803 34.327 72.9814 34.5865 73.1023 34.8736C73.2232 35.1608 73.2841 35.4697 73.2812 35.7813V35.8398ZM56.875 33.4375H65.2832L56.875 25.0293V33.4375ZM45.6543 63.8477C44.7461 63.6133 43.1348 63.1738 42.8125 62.793V62.7344C42.8125 61.7676 43.5156 61.2695 44.8633 61.2695C45.9102 61.2909 46.9282 61.6166 47.793 62.207H47.7637C48.1889 62.5447 48.7149 62.7303 49.2578 62.7344C49.8794 62.7344 50.4756 62.4874 50.9151 62.0479C51.3546 61.6084 51.6016 61.0122 51.6016 60.3906C51.6073 60.0474 51.5336 59.7075 51.3862 59.3975C51.2388 59.0875 51.0217 58.8157 50.752 58.6035C49.0615 57.3065 46.9939 56.5968 44.8633 56.582C40.9082 56.582 38.125 59.1016 38.125 62.7344C38.125 66.3672 41.9336 67.7148 44.4531 68.3887C45.4492 68.6523 46.5039 68.916 47.1484 69.2969C47.793 69.6777 47.5 69.5898 47.5 69.7656C47.5 69.9414 47.5 71.2305 44.8633 71.2305C43.8164 71.2091 42.7984 70.8834 41.9336 70.293H41.9629C41.5377 69.9553 41.0117 69.7697 40.4688 69.7656C39.8471 69.7656 39.251 70.0126 38.8115 70.4521C38.3719 70.8916 38.125 71.4878 38.125 72.1094C38.1193 72.4526 38.193 72.7925 38.3404 73.1025C38.4878 73.4125 38.7048 73.6843 38.9746 73.8965C40.6651 75.1935 42.7327 75.9032 44.8633 75.918C49.4336 75.918 52.1875 73.6035 52.1875 69.7656C52.1875 65.9277 48.0859 64.4922 45.6543 63.8477Z" fill="#333333"/>
</svg>
