<svg width="60" height="60" viewBox="0 0 60 60" fill="none" xmlns="http://www.w3.org/2000/svg">
<path d="M29.8753 0.742102C13.3711 0.742102 0 14.1244 0 30.6174C0 43.8241 8.55927 55.018 20.4216 58.9672C21.921 59.2491 22.4625 58.3248 22.4625 57.5257C22.4625 56.8161 22.4457 54.9396 22.4345 52.4487C14.1198 54.2487 12.3684 48.4324 12.3684 48.4324C11.0072 44.9893 9.04288 44.065 9.04288 44.065C6.33916 42.2183 9.2576 42.2575 9.2576 42.2575C12.2526 42.4611 13.8285 45.3291 13.8285 45.3291C16.493 49.9 20.8193 48.578 22.5316 47.8087C22.793 45.8837 23.5716 44.5598 24.4193 43.8223C17.787 43.0735 10.813 40.5061 10.813 29.0583C10.813 25.7888 11.9707 23.1262 13.8845 21.0349C13.554 20.2861 12.542 17.2426 14.1478 13.1273C14.1478 13.1273 16.648 12.33 22.3635 16.1914C24.7982 15.5292 27.3092 15.1896 29.8323 15.1812C32.3717 15.198 34.9093 15.5304 37.3012 16.1914C42.9831 12.33 45.4814 13.1273 45.4814 13.1273C47.0853 17.2426 46.0733 20.2843 45.782 21.0349C47.6772 23.1262 48.8349 25.7907 48.8349 29.0583C48.8349 40.5322 41.8515 43.0623 35.2118 43.7924C36.2499 44.6868 37.2227 46.526 37.2227 49.3174C37.2227 53.3133 37.1854 56.5323 37.1854 57.5051C37.1854 58.2819 37.7082 59.2155 39.2468 58.9149C51.1969 55.0068 59.7468 43.8036 59.7468 30.6155C59.7468 14.1225 46.3758 0.740234 29.8715 0.740234L29.8753 0.742102Z" fill="#333333"/>
</svg>
