<svg width="95" height="95" viewBox="0 0 95 95" fill="none" xmlns="http://www.w3.org/2000/svg">
<circle cx="47.5" cy="47.5" r="47.5" fill="#F06329"/>
<path fill-rule="evenodd" clip-rule="evenodd" d="M71.875 33.2812V59.6875H67.8125V33.2812H59.6875C58.0713 33.2812 56.5214 32.6392 55.3786 31.4964C54.2358 30.3536 53.5938 28.8037 53.5938 27.1875V19.0625H31.25C30.1726 19.0625 29.1392 19.4905 28.3774 20.2524C27.6155 21.0142 27.1875 22.0476 27.1875 23.125V59.6875H23.125V23.125C23.125 20.9701 23.981 18.9035 25.5048 17.3798C27.0285 15.856 29.0951 15 31.25 15H53.5938L71.875 33.2812ZM32.3225 63.1406V79.3866H29.1091V72.4234H22.2719V79.3866H19.0625V63.1406H22.2759V69.7462H29.1091V63.1406H32.3184H32.3225ZM41.4672 65.83V79.3866H38.2416V65.83H33.6387V63.1406H46.0862V65.83H41.4672V65.83ZM50.3072 79.3866V68.5803H50.4616L54.3291 77.3512H56.4253L60.2684 68.5762H60.4228V79.3866H63.3275V63.1406H60.0775L55.4463 73.6869H55.3406L50.7094 63.1406H47.4391V79.3866H50.3072ZM69.4416 76.6484H76.3316V79.3866H66.2281V63.1406H69.4375V76.6484H69.4416Z" fill="white"/>
</svg>
