<svg width="65" height="65" viewBox="0 0 65 65" fill="none" xmlns="http://www.w3.org/2000/svg">
<path d="M7.32733 39.0361C12.3318 39.0361 15.4259 40.3007 15.4259 43.7985C15.4259 45.5883 14.479 46.7167 13.2816 47.3411C12.9362 47.5211 12.9695 48.0339 13.335 48.1686C14.8987 48.7446 16.2062 49.8832 16.2062 52.2468C16.2062 56.4979 12.7623 57.6817 8.05389 57.6817H2.45703C2.33582 57.6817 2.21957 57.6335 2.13386 57.5478C2.04815 57.4621 2 57.3459 2 57.2247V39.4931C2 39.3719 2.04815 39.2557 2.13386 39.1699C2.21957 39.0842 2.33582 39.0361 2.45703 39.0361H7.32733V39.0361ZM6.49325 42.641V46.0318C6.49325 46.153 6.5414 46.2693 6.62711 46.355C6.71282 46.4407 6.82907 46.4889 6.95028 46.4889H8.08067C9.9102 46.4889 10.8788 45.7894 10.8788 44.2288C10.8788 42.7222 9.88341 42.184 7.75783 42.184H6.95028C6.89027 42.184 6.83083 42.1958 6.77539 42.2188C6.71994 42.2418 6.66955 42.2754 6.62711 42.3179C6.58467 42.3603 6.55101 42.4107 6.52804 42.4661C6.50507 42.5216 6.49325 42.581 6.49325 42.641V42.641ZM6.49325 53.996C6.49325 54.1172 6.5414 54.2334 6.62711 54.3192C6.71282 54.4049 6.82907 54.453 6.95028 54.453H8.08067C10.1524 54.453 11.5784 54.0225 11.5784 52.0046C11.5784 50.1213 10.3138 49.4216 8.40352 49.4216H6.95028C6.82907 49.4216 6.71282 49.4698 6.62711 49.5555C6.5414 49.6412 6.49325 49.7574 6.49325 49.8786V53.996V53.996ZM32.0299 57.6817H28.2719C28.1689 57.6817 28.0689 57.6468 27.9881 57.5829C27.9073 57.5189 27.8505 57.4295 27.827 57.3291L27.0509 54.0252C27.0273 53.9249 26.9706 53.8354 26.8898 53.7714C26.809 53.7074 26.709 53.6726 26.6059 53.6726H21.9221C21.8191 53.6727 21.719 53.7075 21.6383 53.7715C21.5575 53.8355 21.5007 53.9249 21.4771 54.0252L20.7011 57.3291C20.6775 57.4295 20.6207 57.5189 20.54 57.5829C20.4592 57.6469 20.3592 57.6817 20.2561 57.6817H16.6065C16.2997 57.6817 16.0801 57.3856 16.1691 57.0921L21.5423 39.3606C21.5707 39.2667 21.6286 39.1845 21.7073 39.1261C21.7861 39.0676 21.8816 39.0361 21.9796 39.0361H26.6821C26.7803 39.0361 26.8759 39.0677 26.9547 39.1263C27.0335 39.1848 27.0914 39.2672 27.1197 39.3612L32.4672 57.0928C32.556 57.386 32.3363 57.6817 32.0299 57.6817V57.6817ZM26.0547 49.8817L24.6985 44.1557C24.5872 43.686 23.9185 43.6871 23.8086 44.1571L22.4713 49.8831C22.4557 49.9501 22.4553 50.0199 22.4704 50.0871C22.4855 50.1543 22.5155 50.2172 22.5583 50.2711C22.6011 50.3251 22.6556 50.3686 22.7176 50.3986C22.7796 50.4285 22.8476 50.4441 22.9164 50.4441H25.6099C25.6788 50.4441 25.7469 50.4285 25.809 50.3985C25.8711 50.3684 25.9256 50.3247 25.9684 50.2706C26.0112 50.2165 26.0412 50.1534 26.0562 50.086C26.0711 50.0187 26.0706 49.9488 26.0547 49.8817V49.8817ZM46.226 40.9814L44.6399 42.8612C44.4833 43.0468 44.207 43.0816 44.0145 42.9335C43.1169 42.2438 42.1602 41.8612 41.0123 41.8612C38.6714 41.8612 37.0034 43.7714 37.0034 48.3184C37.0034 52.7579 38.6445 54.695 41.12 54.695C42.4357 54.695 43.4111 54.1208 44.3678 53.4071C44.4636 53.335 44.5838 53.3034 44.7026 53.319C44.8214 53.3346 44.9294 53.3962 45.0033 53.4905L46.4896 55.3929C46.6355 55.5796 46.6167 55.8489 46.4416 56.0086C45.1859 57.1542 43.2609 58.139 40.8779 58.139C35.7659 58.139 32.3489 54.722 32.3489 48.3185C32.3489 42.0496 35.9273 38.5519 40.7434 38.5519C43.0709 38.5519 44.7146 39.2127 46.1573 40.3245C46.3629 40.4831 46.3936 40.7827 46.226 40.9814V40.9814ZM52.6624 57.6817H49.0832C48.962 57.6817 48.8458 57.6335 48.7601 57.5478C48.6744 57.4621 48.6262 57.3459 48.6262 57.2247V39.4931C48.6262 39.4331 48.638 39.3737 48.661 39.3182C48.684 39.2628 48.7176 39.2124 48.7601 39.1699C48.8025 39.1275 48.8529 39.0938 48.9083 39.0709C48.9638 39.0479 49.0232 39.0361 49.0832 39.0361H52.6624C52.7224 39.0361 52.7819 39.0479 52.8373 39.0709C52.8928 39.0938 52.9432 39.1275 52.9856 39.1699C53.028 39.2124 53.0617 39.2628 53.0847 39.3182C53.1076 39.3737 53.1195 39.4331 53.1195 39.4931V57.2247C53.1195 57.2847 53.1076 57.3441 53.0847 57.3996C53.0617 57.455 53.028 57.5054 52.9856 57.5478C52.9432 57.5903 52.8928 57.6239 52.8373 57.6469C52.7819 57.6699 52.7224 57.6817 52.6624 57.6817ZM57.2112 47.6617L63.0426 56.9822C63.233 57.2866 63.0142 57.6816 62.6552 57.6816H58.5744C58.4952 57.6816 58.4173 57.661 58.3484 57.6218C58.2796 57.5826 58.2221 57.5262 58.1816 57.4581L52.5436 47.9762C52.4992 47.9016 52.477 47.8159 52.4796 47.7291C52.4822 47.6423 52.5094 47.5581 52.5582 47.4862L58.1515 39.2367C58.1934 39.1749 58.2498 39.1243 58.3157 39.0893C58.3817 39.0544 58.4552 39.0361 58.5298 39.0361H62.086C62.4569 39.0361 62.6733 39.4544 62.4591 39.7571L57.2256 47.1554C57.1735 47.2289 57.1443 47.3162 57.1417 47.4063C57.1392 47.4964 57.1633 47.5853 57.2112 47.6617V47.6617ZM44.0606 14.1752H28.1794V7.44545C28.1794 6.29437 26.8978 5.60666 25.9387 6.24295L8.5989 17.7462C7.73854 18.317 7.73854 19.5804 8.5989 20.1512L25.9387 31.6543C26.8979 32.2906 28.1794 31.6029 28.1794 30.4518V23.722H44.0606C46.6968 23.722 48.8339 21.5849 48.8339 18.9487C48.8339 16.3125 46.6969 14.1752 44.0606 14.1752Z" fill="white"/>
</svg>
