<svg width="95" height="95" viewBox="0 0 95 95" fill="none" xmlns="http://www.w3.org/2000/svg">
<circle cx="47.5" cy="47.5" r="44.5" fill="#1B0124" stroke="#DF76FF" stroke-width="6"/>
<ellipse cx="49.8046" cy="49.175" rx="28.9545" ry="28" fill="#DF76FF"/>
<path d="M42.6437 37.8615C41.6584 37.4654 40.6039 37.2821 39.5463 37.3231C38.5922 37.3026 37.6377 37.3206 36.685 37.3769V46.4231L37.7088 46.4769H39.1C40.1238 46.4769 41.1475 46.3154 42.1187 45.9923C42.9587 45.75 43.6938 45.2385 44.2713 44.5654C44.8225 43.8923 45.085 42.9769 45.085 41.7923C45.1443 40.955 44.9388 40.1204 44.499 39.4123C44.0593 38.7042 43.4087 38.1604 42.6437 37.8615ZM67.8438 16H27.1562C24.1974 16 21.3598 17.2055 19.2676 19.3514C17.1754 21.4972 16 24.4076 16 27.4423V67.5577C16 73.8846 20.9875 79 27.1562 79H67.8438C74.0125 79 79 73.8846 79 67.5577V27.4423C79 21.1154 74.0125 16 67.8438 16ZM49.2325 47.3654C48.1825 48.8731 46.7125 50.0038 45.0063 50.65C43.2213 51.3231 41.2525 51.5654 39.1 51.5654L37.7875 51.5385L36.6587 51.5115V60.1538C36.6662 60.1984 36.6645 60.244 36.6536 60.2878C36.6428 60.3316 36.6232 60.3725 36.596 60.4081C36.5688 60.4436 36.5346 60.4729 36.4957 60.494C36.4567 60.5151 36.4139 60.5277 36.37 60.5308H31.2775C31.0675 60.5308 30.9625 60.4231 30.9625 60.1808V32.4769C30.9625 32.2885 31.0413 32.1808 31.225 32.1808L32.695 32.1538L34.69 32.1L36.9737 32.0462L39.3625 32.0192C41.515 32.0192 43.3 32.2885 44.77 32.8538C46.0825 33.3115 47.29 34.0654 48.2875 35.0615C49.1275 35.9231 49.7837 36.9731 50.2037 38.1308C50.5975 39.2615 50.8075 40.4192 50.8075 41.6308C50.8075 43.9462 50.2825 45.8577 49.2325 47.3654V47.3654ZM67.135 38.8846V44.1346C67.135 44.35 67.0037 44.4308 66.715 44.4308C64.9831 44.3662 63.2595 44.7069 61.675 45.4269C61.1762 45.6692 60.7037 45.9923 60.3362 46.4231V60.1538C60.3362 60.4231 60.2313 60.5308 59.995 60.5308H54.8237C54.7754 60.5384 54.7261 60.536 54.6787 60.5238C54.6313 60.5116 54.5867 60.4898 54.5476 60.4597C54.5085 60.4296 54.4756 60.3919 54.4509 60.3486C54.4262 60.3053 54.4102 60.2574 54.4038 60.2077V45.1846L54.3775 43.1654L54.325 41.0654C54.325 40.4462 54.2725 39.8538 54.22 39.2346C54.211 39.1709 54.2246 39.1059 54.2583 39.0516C54.2921 38.9973 54.3436 38.9571 54.4038 38.9385H59.0762C59.3387 38.9385 59.5488 39.1269 59.6013 39.3692C59.8385 40.172 59.9536 41.0074 59.9425 41.8462C60.73 40.9038 61.7012 40.1231 62.7775 39.5308C63.9977 38.8356 65.3717 38.474 66.7675 38.4808C66.9513 38.4538 67.1087 38.5885 67.135 38.7769V38.8846V38.8846Z" fill="#1B0124"/>
</svg>
