<svg width="188" height="42" viewBox="0 0 188 42" fill="none" xmlns="http://www.w3.org/2000/svg">
<path d="M169.3 11.6501C168.027 11.6501 166.849 12.0496 165.88 12.7296C165.817 11.7555 165.594 10.9106 165.184 10.1626C166.478 9.44644 167.937 9.08036 169.416 9.1005C170.895 9.12065 172.343 9.52634 173.617 10.2775C174.891 11.0286 175.947 12.0992 176.68 13.3834C177.414 14.6676 177.8 16.1211 177.8 17.6001H181.627C182.415 17.6001 183.172 17.9133 183.73 18.4708C184.288 19.0284 184.601 19.7847 184.602 20.5734V29.9234C184.602 30.3143 184.525 30.7015 184.375 31.0628C184.226 31.424 184.007 31.7523 183.73 32.0287C183.454 32.3052 183.126 32.5244 182.764 32.6739C182.403 32.8235 182.016 32.9003 181.625 32.9001H172.275C171.486 32.9001 170.729 32.5866 170.171 32.0287C169.613 31.4708 169.3 30.7141 169.3 29.9251V26.1001C168.117 26.1016 166.948 25.8555 165.866 25.3776C165.888 24.7996 165.9 24.1927 165.9 23.5501V23.4447C165.9 23.1608 165.9 22.8344 165.895 22.4808C166.893 23.1782 168.082 23.5516 169.3 23.5501V20.5751C169.3 18.9329 170.633 17.6001 172.275 17.6001H175.25C175.25 16.022 174.623 14.5086 173.507 13.3928C172.391 12.277 170.878 11.6501 169.3 11.6501ZM177.411 20.1501C176.999 21.4555 176.278 22.6424 175.31 23.6103C174.342 24.5783 173.155 25.2988 171.85 25.7108V29.9251C171.85 30.1597 172.04 30.3501 172.275 30.3501H181.625C181.738 30.3501 181.846 30.3053 181.925 30.2256C182.005 30.1459 182.05 30.0378 182.05 29.9251V20.5751C182.05 20.4624 182.005 20.3543 181.925 20.2746C181.846 20.1949 181.738 20.1501 181.625 20.1501H177.411ZM174.677 20.1501H172.275C172.162 20.1501 172.054 20.1949 171.974 20.2746C171.895 20.3543 171.85 20.4624 171.85 20.5751V22.9772C173.089 22.3874 174.087 21.3891 174.677 20.1501ZM161.788 7.61258C161.929 7.736 162.025 7.90261 162.062 8.08647C162.098 8.27034 162.073 8.46114 161.99 8.62918C161.976 8.67891 161.968 8.7304 161.968 8.78218C161.968 8.88928 161.995 9.09328 162.252 9.34828C162.376 9.47238 162.471 9.56078 162.575 9.65768C162.66 9.73588 162.75 9.81748 162.864 9.92968C163.085 10.1405 163.318 10.3887 163.527 10.6998C163.96 11.3509 164.2 12.1652 164.2 13.3501C164.2 14.8002 163.663 16.0361 162.825 16.7943L162.933 16.9201C163.409 17.5049 163.687 18.2631 163.86 19.0111C164.2 20.4901 164.2 22.2683 164.2 23.5076V23.5501C164.2 28.288 163.556 30.9757 162.847 32.5125C162.49 33.286 162.111 33.779 161.783 34.0884C161.649 34.2163 161.502 34.3292 161.344 34.425C161.272 34.4686 161.196 34.5066 161.118 34.5389C161.118 34.5389 160.926 34.6001 160.8 34.6001C160.674 34.6001 160.482 34.5389 160.482 34.5389C160.403 34.5085 160.327 34.4704 160.256 34.425C160.098 34.3292 159.951 34.2163 159.817 34.0884C159.489 33.7773 159.11 33.286 158.753 32.5125C158.044 30.9757 157.4 28.288 157.4 23.5501V23.5076C157.4 22.2666 157.4 20.4901 157.74 19.0111C157.913 18.2631 158.19 17.5049 158.666 16.9201C158.7 16.8776 158.738 16.8351 158.775 16.7943C157.937 16.0361 157.4 14.8002 157.4 13.3501C157.4 12.7959 157.548 12.1346 157.752 11.5243C157.956 10.9123 158.241 10.2799 158.571 9.76988C158.964 9.10688 159.516 8.55098 159.945 8.17698C160.18 7.97042 160.425 7.77581 160.679 7.59388L160.754 7.54288C160.91 7.43897 161.096 7.38947 161.283 7.40207C161.47 7.41468 161.647 7.48868 161.788 7.61258Z" fill="#EF51A5"/>
<path d="M3.49965 11H10.6996V14.6H4.93965L4.84965 14.78L9.64965 23.54C10.6296 25.3 11.1196 26.64 11.1196 27.56C11.1196 29.58 10.4496 31.06 9.10965 32H1.15965V28.52H7.36965L7.45965 28.34L2.05965 18.65C1.27965 17.25 0.889648 16.11 0.889648 15.23C0.889648 13.15 1.75965 11.74 3.49965 11ZM22.5511 11C23.9511 12.14 24.9911 13.67 25.6711 15.59C26.3511 17.51 26.6911 19.49 26.6911 21.53C26.6911 23.55 26.3611 25.47 25.7011 27.29C25.0411 29.11 23.9911 30.68 22.5511 32H16.3711C14.9311 30.68 13.8811 29.11 13.2211 27.29C12.5611 25.47 12.2311 23.55 12.2311 21.53C12.2311 19.49 12.5711 17.51 13.2511 15.59C13.9311 13.67 14.9711 12.14 16.3711 11H22.5511ZM18.3811 28.52H20.5411C21.0411 27.94 21.4611 27 21.8011 25.7C22.1611 24.38 22.3411 22.99 22.3411 21.53C22.3411 20.07 22.1711 18.7 21.8311 17.42C21.4911 16.12 21.0711 15.18 20.5711 14.6H18.3811C17.8811 15.18 17.4511 16.12 17.0911 17.42C16.7511 18.7 16.5811 20.07 16.5811 21.53C16.5811 22.99 16.7511 24.38 17.0911 25.7C17.4511 27 17.8811 27.94 18.3811 28.52ZM38.3908 32L32.7808 20.39L32.6308 20.45L32.8108 23.99V32H29.0308V11H32.0608L37.5808 23.06L37.7308 23L37.4008 19.31V11H41.1808V32H38.3908ZM48.8648 32V11H59.6348V14.6H52.9748V19.61H58.9148V23.09H52.9748V28.52H59.7548V32H48.8648ZM67.2677 28.52H69.7877C70.2277 28.04 70.5377 27.56 70.7177 27.08C70.9177 26.58 71.0177 25.85 71.0177 24.89V11H75.1277V23.39C75.1277 24.41 75.0977 25.21 75.0377 25.79C74.9977 26.35 74.8777 27.04 74.6777 27.86C74.3377 29.32 73.3977 30.7 71.8577 32H65.1977C63.6577 30.74 62.7177 29.36 62.3777 27.86C62.0777 26.64 61.9277 25.15 61.9277 23.39V11H66.0377V24.89C66.0377 25.85 66.1277 26.58 66.3077 27.08C66.5077 27.56 66.8277 28.04 67.2677 28.52ZM87.2287 32L81.6187 20.39L81.4687 20.45L81.6487 23.99V32H77.8687V11H80.8987L86.4187 23.06L86.5687 23L86.2387 19.31V11H90.0187V32H87.2287ZM99.6227 11H106.823V14.6H101.063L100.973 14.78L105.773 23.54C106.753 25.3 107.243 26.64 107.243 27.56C107.243 29.58 106.573 31.06 105.233 32H97.2827V28.52H103.493L103.583 28.34L98.1827 18.65C97.4027 17.25 97.0127 16.11 97.0127 15.23C97.0127 13.15 97.8827 11.74 99.6227 11ZM118.274 32L117.644 28.67H112.904L112.274 32H108.194L112.244 11H118.454L122.294 32H118.274ZM115.214 14.9L114.044 21.89L113.384 25.46H117.134L116.444 21.89L115.274 14.9H115.214ZM124.041 32V11H134.811V14.6H128.151V19.61H134.091V23.09H128.151V28.52H134.931V32H124.041ZM144.903 22.4H144.783H144.903L146.493 15.83L147.783 11H151.533L152.883 32H148.953L148.383 20.54H148.233L146.073 29H143.613L141.453 20.54H141.303L140.733 32H136.803L138.153 11H141.903L143.193 15.83L144.783 22.4H144.903Z" fill="black"/>
</svg>
