<svg width="50" height="50" viewBox="0 0 50 50" fill="none" xmlns="http://www.w3.org/2000/svg">
<path d="M16.6668 14.5479C16.1143 14.5479 15.5844 14.7674 15.1937 15.1581C14.803 15.5488 14.5835 16.0787 14.5835 16.6312C14.5835 17.1838 14.803 17.7137 15.1937 18.1044C15.5844 18.4951 16.1143 18.7146 16.6668 18.7146H33.3335C33.886 18.7146 34.4159 18.4951 34.8066 18.1044C35.1973 17.7137 35.4168 17.1838 35.4168 16.6312C35.4168 16.0787 35.1973 15.5488 34.8066 15.1581C34.4159 14.7674 33.886 14.5479 33.3335 14.5479H16.6668ZM14.5835 25C14.5835 24.4475 14.803 23.9176 15.1937 23.5269C15.5844 23.1362 16.1143 22.9167 16.6668 22.9167H33.3335C33.886 22.9167 34.4159 23.1362 34.8066 23.5269C35.1973 23.9176 35.4168 24.4475 35.4168 25C35.4168 25.5525 35.1973 26.0824 34.8066 26.4731C34.4159 26.8638 33.886 27.0833 33.3335 27.0833H16.6668C16.1143 27.0833 15.5844 26.8638 15.1937 26.4731C14.803 26.0824 14.5835 25.5525 14.5835 25ZM16.6668 31.2854C16.1143 31.2854 15.5844 31.5049 15.1937 31.8956C14.803 32.2863 14.5835 32.8162 14.5835 33.3687C14.5835 33.9213 14.803 34.4512 15.1937 34.8419C15.5844 35.2326 16.1143 35.4521 16.6668 35.4521H33.3335C33.886 35.4521 34.4159 35.2326 34.8066 34.8419C35.1973 34.4512 35.4168 33.9213 35.4168 33.3687C35.4168 32.8162 35.1973 32.2863 34.8066 31.8956C34.4159 31.5049 33.886 31.2854 33.3335 31.2854H16.6668Z" fill="#333333"/>
<path fill-rule="evenodd" clip-rule="evenodd" d="M45.8334 25C45.8334 36.5063 36.5063 45.8334 25.0001 45.8334C13.4938 45.8334 4.16675 36.5063 4.16675 25C4.16675 13.4938 13.4938 4.16669 25.0001 4.16669C36.5063 4.16669 45.8334 13.4938 45.8334 25ZM41.6667 25C41.6667 29.4203 39.9108 33.6595 36.7852 36.7851C33.6596 39.9107 29.4204 41.6667 25.0001 41.6667C20.5798 41.6667 16.3406 39.9107 13.215 36.7851C10.0894 33.6595 8.33341 29.4203 8.33341 25C8.33341 20.5797 10.0894 16.3405 13.215 13.2149C16.3406 10.0893 20.5798 8.33335 25.0001 8.33335C29.4204 8.33335 33.6596 10.0893 36.7852 13.2149C39.9108 16.3405 41.6667 20.5797 41.6667 25Z" fill="#333333"/>
</svg>
